<?xml version="1.0" encoding="utf-8"?>
<!-- Generator: Adobe Illustrator 15.0.0, SVG Export Plug-In . SVG Version: 6.00 Build 0)  -->
<!DOCTYPE svg PUBLIC "-//W3C//DTD SVG 1.1//EN" "http://www.w3.org/Graphics/SVG/1.1/DTD/svg11.dtd">
<svg version="1.1" id="Layer_1" xmlns="http://www.w3.org/2000/svg" xmlns:xlink="http://www.w3.org/1999/xlink" x="0px" y="0px"
	 width="300px" height="300px" viewBox="0 0 300 300" enable-background="new 0 0 300 300" xml:space="preserve">
<g display="none">
	<rect x="12.363" y="23.469" display="inline" fill="#C4D3ED" width="260.439" height="242.309"/>
	<path display="inline" d="M272.902,265.877l-260.539,0.411l-0.51,0.001l0-0.512L11.563,23.469l-0.001-0.798l0.801-0.002
		l65.11-0.186l65.11-0.005l130.22,0.016h0.977l-0.003,0.974l-0.347,121.154l-0.184,60.577L272.902,265.877z M272.702,265.677
		l-0.343-60.477l-0.184-60.577l-0.347-121.154l0.974,0.974l-130.22,0.016l-65.11-0.005l-65.11-0.186l0.8-0.8l-0.289,242.309
		l-0.511-0.511L272.702,265.677z"/>
</g>
<path display="none" fill="#FFFFFF" d="M218.561,168.092c0,1.988-1.611,3.6-3.6,3.6H74.358c-1.988,0-3.6-1.611-3.6-3.6V72.16
	c0-1.988,1.612-3.6,3.6-3.6h140.603c1.988,0,3.6,1.612,3.6,3.6V168.092z"/>
<g>
	<path fill="#939598" d="M103.064,175.392l-4.604,37.856l-4.403,0.661c-1.912,0.286-3.229,2.068-2.942,3.98
		c0.287,1.911,2.069,3.229,3.98,2.941l7.037-1.056c1.558-0.233,2.765-1.475,2.956-3.038l4.926-40.5
		c0.233-1.919-1.133-3.664-3.052-3.897C105.043,172.106,103.298,173.473,103.064,175.392z"/>
	<path fill="#939598" d="M183.99,176.237l4.926,40.5c0.19,1.563,1.397,2.805,2.955,3.038l7.037,1.056
		c1.912,0.287,3.694-1.03,3.98-2.941c0.287-1.912-1.03-3.694-2.941-3.98l-4.403-0.661l-4.604-37.856
		c-0.233-1.919-1.979-3.285-3.897-3.052S183.757,174.318,183.99,176.237z"/>
	<path fill="#808285" d="M106.516,175.633c-1.577,12.965-3.153,25.928-4.73,38.891c-0.1,0.823,0.486,1.57,1.308,1.671
		c0.822,0.1,1.57-0.485,1.67-1.308c1.577-12.965,3.153-25.928,4.73-38.892c0.1-0.822-0.486-1.569-1.308-1.67
		C107.364,174.226,106.616,174.811,106.516,175.633L106.516,175.633z"/>
	<path fill="#808285" d="M184.61,177.328c1.577,12.964,3.153,25.927,4.73,38.891c0.101,0.823,0.848,1.408,1.67,1.309
		c0.823-0.101,1.408-0.848,1.309-1.67c-1.577-12.964-3.153-25.927-4.73-38.891c-0.101-0.823-0.848-1.408-1.671-1.309
		C185.096,175.759,184.511,176.506,184.61,177.328z"/>
	<path fill="#A7A9AC" d="M216.811,116.463l0.185-0.32L216.811,116.463L216.811,116.463l0.185-0.32L216.811,116.463
		c0.106,0.06,4.037,2.37,8.651,6.497c4.623,4.122,9.887,10.061,12.845,17.209c1.734,4.161,2.395,8.895,2.392,13.518
		c0.002,5.477-0.919,10.766-1.848,14.646c-0.464,1.94-0.928,3.53-1.271,4.621c-0.172,0.546-0.313,0.967-0.409,1.245
		c-0.048,0.14-0.085,0.243-0.108,0.309l-0.025,0.069l-0.005,0.013l0.668,0.248l-0.667-0.25l-0.001,0.002l0.668,0.248l-0.667-0.25
		c-0.677,1.812,0.242,3.827,2.053,4.504c1.812,0.677,3.827-0.242,4.504-2.053c0.038-0.102,1.053-2.828,2.069-7.079
		c1.015-4.252,2.037-10.025,2.04-16.273c-0.003-5.269-0.727-10.897-2.927-16.204c-3.626-8.695-9.73-15.379-14.888-19.958
		c-5.167-4.574-9.433-7.042-9.573-7.125c-1.674-0.966-3.814-0.393-4.781,1.281C214.562,113.356,215.137,115.497,216.811,116.463z"/>
	<path fill="#939598" d="M214.636,116.969c5.623,2.97,11.062,6.904,15.491,11.638c4.431,4.736,7.848,10.26,9.507,16.435
		c0.215,0.8,1.037,1.274,1.838,1.06c0.8-0.215,1.274-1.038,1.059-1.838c-1.812-6.745-5.516-12.687-10.213-17.707
		c-4.7-5.021-10.398-9.132-16.281-12.24c-0.732-0.387-1.64-0.107-2.026,0.625S213.902,116.582,214.636,116.969z"/>
	<path fill="#A7A9AC" d="M70.629,110.4c-0.141,0.083-4.406,2.551-9.573,7.125c-5.157,4.578-11.261,11.262-14.887,19.958
		c-2.201,5.308-2.924,10.936-2.927,16.204c0.002,6.248,1.025,12.022,2.04,16.274c1.017,4.251,2.032,6.978,2.07,7.079
		c0.676,1.811,2.693,2.729,4.503,2.053s2.73-2.692,2.053-4.504l-0.672,0.252l0.673-0.25l-0.001-0.002l-0.672,0.252l0.673-0.25
		c-0.021-0.057-0.95-2.576-1.862-6.44c-0.915-3.862-1.807-9.072-1.805-14.464c-0.003-4.623,0.657-9.356,2.391-13.518
		c3.005-7.262,8.39-13.275,13.064-17.404c2.332-2.066,4.475-3.664,6.018-4.732c0.771-0.535,1.392-0.938,1.812-1.201
		c0.21-0.132,0.369-0.229,0.472-0.291l0.11-0.066l0.022-0.013l-0.188-0.322l0.187,0.323l0.001-0.001l-0.188-0.322l0.187,0.323
		c1.674-0.966,2.248-3.107,1.281-4.781C74.444,110.008,72.304,109.434,70.629,110.4z"/>
	<path fill="#939598" d="M74.952,114.458c-5.882,3.107-11.58,7.219-16.28,12.24c-4.697,5.02-8.4,10.962-10.214,17.707
		c-0.215,0.8,0.259,1.623,1.06,1.838c0.8,0.215,1.623-0.259,1.838-1.06c1.659-6.176,5.076-11.7,9.507-16.436
		c4.428-4.734,9.867-8.667,15.491-11.637c0.732-0.387,1.013-1.294,0.625-2.027C76.592,114.351,75.684,114.071,74.952,114.458z"/>
	<path fill="#FFFFFF" d="M90.294,157.904c13.505-2.725,32.862-4.432,54.365-4.432c40.813,0,73.901,6.149,73.901,13.736
		c0,7.586-33.088,13.735-73.901,13.735c-40.814,0-73.901-6.149-73.901-13.735C70.759,163.619,78.166,160.352,90.294,157.904"/>
	<path fill="#FFFFFF" d="M90.492,158.885c13.407-2.706,32.72-4.413,54.167-4.412c20.354-0.001,38.786,1.536,52.073,4.006
		c6.64,1.233,11.999,2.706,15.618,4.299c1.809,0.793,3.178,1.62,4.036,2.403c0.431,0.391,0.73,0.766,0.915,1.104
		c0.184,0.34,0.258,0.634,0.259,0.925c-0.001,0.291-0.075,0.585-0.259,0.925c-0.341,0.635-1.114,1.396-2.329,2.149
		c-2.121,1.33-5.524,2.642-9.92,3.81c-13.205,3.521-35.352,5.854-60.394,5.852c-20.355,0.001-38.787-1.536-52.073-4.006
		c-6.64-1.232-11.999-2.706-15.618-4.299c-1.809-0.792-3.178-1.62-4.036-2.402c-0.43-0.391-0.731-0.766-0.915-1.104
		c-0.185-0.34-0.258-0.634-0.259-0.925c0.001-0.275,0.067-0.553,0.23-0.871c0.282-0.553,0.893-1.21,1.856-1.875
		c1.441-1.001,3.635-2.013,6.448-2.954C83.107,160.564,86.542,159.682,90.492,158.885l-0.396-1.961
		c-6.112,1.235-11.05,2.672-14.541,4.298c-1.747,0.817-3.136,1.678-4.143,2.642c-0.502,0.483-0.911,0.997-1.201,1.557
		c-0.289,0.558-0.455,1.167-0.454,1.789c-0.001,0.657,0.184,1.301,0.504,1.884c0.606,1.098,1.644,2.021,3.024,2.887
		c2.42,1.508,5.958,2.842,10.465,4.046c13.505,3.594,35.73,5.916,60.908,5.919c20.459-0.001,38.978-1.539,52.438-4.04
		c6.733-1.253,12.197-2.739,16.058-4.434c1.931-0.851,3.466-1.748,4.576-2.753c0.554-0.504,1.004-1.039,1.325-1.625
		c0.32-0.583,0.505-1.227,0.504-1.884c0.001-0.657-0.184-1.301-0.504-1.884c-0.606-1.098-1.644-2.021-3.024-2.888
		c-2.42-1.508-5.958-2.842-10.465-4.046c-13.505-3.594-35.73-5.916-60.908-5.919c-21.558,0.001-40.96,1.708-54.563,4.451
		L90.492,158.885z"/>
	<rect x="70.758" y="64.078" fill="#FFFFFF" width="147.802" height="103.131"/>
	<polyline fill="#FFFFFF" points="217.561,64.077 217.561,167.209 219.561,167.209 219.561,64.077 	"/>
	<line fill="#FFFFFF" x1="70.758" y1="64.077" x2="70.758" y2="167.209"/>
	<polyline fill="#FFFFFF" points="69.758,64.077 69.758,167.209 71.758,167.209 71.758,64.077 	"/>
	<circle fill="#FEE5DA" cx="190.182" cy="125.207" r="5.082"/>
	<path fill="#FEE5DA" d="M195.264,125.207h-1c-0.001,1.13-0.455,2.145-1.195,2.886c-0.742,0.74-1.757,1.195-2.887,1.196
		c-1.13,0-2.145-0.456-2.887-1.196c-0.74-0.742-1.195-1.756-1.195-2.886c0-1.13,0.455-2.144,1.195-2.886
		c0.742-0.74,1.757-1.195,2.887-1.196c1.13,0,2.145,0.456,2.887,1.196c0.74,0.742,1.194,1.756,1.195,2.886H195.264h1
		c-0.001-3.359-2.723-6.081-6.082-6.082c-3.359,0-6.081,2.723-6.082,6.082c0.001,3.359,2.723,6.082,6.082,6.082
		c3.359,0,6.081-2.723,6.082-6.082H195.264z"/>
	<circle fill="#FEE5DA" cx="100.558" cy="125.207" r="5.082"/>
	<path fill="#FEE5DA" d="M105.64,125.207h-1c0,1.13-0.456,2.145-1.196,2.886c-0.742,0.74-1.756,1.195-2.886,1.196
		c-1.13,0-2.144-0.455-2.886-1.196c-0.74-0.742-1.195-1.756-1.196-2.886c0-1.13,0.456-2.144,1.196-2.886
		c0.742-0.74,1.756-1.195,2.886-1.196c1.13,0,2.145,0.456,2.886,1.196c0.741,0.742,1.195,1.756,1.196,2.886H105.64h1
		c0-3.359-2.723-6.081-6.082-6.082c-3.359,0-6.081,2.723-6.082,6.082c0,3.359,2.723,6.082,6.082,6.082
		c3.359,0,6.082-2.723,6.082-6.082H105.64z"/>
	<circle cx="97.496" cy="102.224" r="3.062"/>
	<path d="M100.558,102.224h-1c-0.002,1.139-0.923,2.06-2.062,2.062c-1.139-0.002-2.06-0.923-2.062-2.062
		c0.002-1.139,0.923-2.06,2.062-2.062c1.139,0.002,2.06,0.923,2.062,2.062H100.558h1c0-2.244-1.818-4.062-4.062-4.062
		c-2.244,0-4.062,1.818-4.062,4.062c0,2.244,1.818,4.062,4.062,4.062c2.244,0,4.062-1.818,4.062-4.062H100.558z"/>
	<path d="M135.43,114.535c-0.029,0.37-0.049,0.743-0.048,1.122c0.019,6.676,4.831,12.074,10.749,12.058
		c5.729-0.016,10.38-5.106,10.654-11.489c-2.747,0.227-5.536,0.252-8.328,0.109c-1.337-0.069-2.675-0.176-4.01-0.319
		C141.407,115.691,138.386,115.184,135.43,114.535z"/>
	<path d="M135.43,114.535l-0.997-0.079c-0.03,0.378-0.051,0.769-0.051,1.174v0.034v-0.004l0,0c0.01,3.573,1.299,6.821,3.406,9.19
		c2.103,2.369,5.052,3.866,8.316,3.865h0.026h0.005h-0.002c3.166-0.008,6.029-1.426,8.105-3.679
		c2.079-2.253,3.397-5.345,3.545-8.768l0.049-1.133l-1.13,0.093c-1.597,0.132-3.21,0.195-4.831,0.195
		c-1.118,0-2.241-0.03-3.364-0.087c-1.318-0.068-2.637-0.174-3.955-0.314c-2.999-0.321-5.985-0.823-8.908-1.464l-1.121-0.246
		l-0.091,1.144L135.43,114.535l-0.214,0.977c2.989,0.656,6.046,1.17,9.125,1.499c1.353,0.145,2.708,0.253,4.065,0.323
		c1.156,0.06,2.312,0.09,3.466,0.09c1.673,0,3.341-0.065,4.995-0.202l-0.082-0.997l-0.999-0.043c-0.126,2.96-1.27,5.605-3.017,7.497
		c-1.751,1.893-4.078,3.027-6.641,3.036h0.003h-0.026c-2.643-0.001-5.044-1.2-6.822-3.194c-1.773-1.993-2.893-4.774-2.9-7.867
		v-0.004l0,0v-0.021c0-0.335,0.018-0.672,0.045-1.016L135.43,114.535l-0.214,0.977L135.43,114.535z"/>
	<ellipse fill="#F1F2F2" cx="144.659" cy="64.077" rx="73.901" ry="13.736"/>
	<path fill="#F1F2F2" d="M218.561,64.077h-1c-0.001,0.291-0.075,0.585-0.259,0.925c-0.341,0.634-1.114,1.396-2.329,2.15
		c-2.121,1.33-5.524,2.641-9.92,3.809c-13.205,3.521-35.351,5.855-60.394,5.852c-20.355,0.001-38.787-1.536-52.073-4.006
		c-6.64-1.232-11.999-2.706-15.618-4.298c-1.809-0.793-3.178-1.62-4.036-2.403c-0.43-0.39-0.731-0.765-0.915-1.103
		c-0.185-0.34-0.258-0.634-0.259-0.925c0.001-0.291,0.075-0.585,0.259-0.925c0.34-0.635,1.113-1.396,2.328-2.15
		c2.121-1.33,5.524-2.641,9.92-3.809c13.205-3.522,35.35-5.855,60.393-5.852c20.355-0.001,38.787,1.536,52.073,4.006
		c6.64,1.233,11.999,2.706,15.618,4.299c1.809,0.792,3.178,1.62,4.036,2.403c0.431,0.391,0.73,0.766,0.915,1.104
		c0.184,0.34,0.258,0.634,0.259,0.925H218.561h1c0.001-0.658-0.184-1.3-0.504-1.884c-0.606-1.097-1.644-2.021-3.024-2.887
		c-2.42-1.508-5.958-2.842-10.465-4.046c-13.505-3.594-35.73-5.917-60.908-5.919c-20.459,0.001-38.978,1.539-52.438,4.04
		c-6.733,1.253-12.197,2.74-16.057,4.434c-1.931,0.851-3.466,1.748-4.576,2.753c-0.554,0.504-1.004,1.039-1.325,1.625
		c-0.32,0.583-0.505,1.226-0.504,1.884c-0.001,0.658,0.184,1.3,0.504,1.884c0.606,1.097,1.644,2.021,3.024,2.887
		c2.42,1.508,5.958,2.842,10.465,4.045c13.505,3.594,35.73,5.917,60.908,5.919c20.459-0.001,38.979-1.539,52.438-4.04
		c6.734-1.253,12.198-2.74,16.058-4.434c1.931-0.851,3.466-1.749,4.576-2.754c0.555-0.504,1.005-1.039,1.325-1.625
		c0.32-0.583,0.505-1.226,0.504-1.884H218.561z"/>
	<circle cx="193.244" cy="102.224" r="3.062"/>
	<path d="M196.306,102.224h-1c-0.002,1.139-0.924,2.06-2.062,2.062c-1.139-0.002-2.06-0.923-2.062-2.062
		c0.002-1.139,0.923-2.06,2.062-2.062c1.139,0.002,2.061,0.923,2.062,2.062H196.306h1c-0.001-2.244-1.818-4.062-4.062-4.062
		c-2.244,0-4.062,1.818-4.062,4.062s1.817,4.062,4.062,4.062c2.244,0,4.062-1.818,4.062-4.062H196.306z"/>
	<path fill="#F1F2F2" d="M76.75,164.503c0,1.988-0.806,3.6-1.8,3.6H74.18c-0.994,0-1.8-1.611-1.8-3.6v-84.51
		c0-1.988,0.806-3.6,1.8-3.6h0.771c0.994,0,1.8,1.612,1.8,3.6V164.503z"/>
	<path fill="#F1F2F2" d="M76.75,164.503h-2c0.005,0.722-0.164,1.361-0.316,1.651l-0.085,0.144l-0.012,0.016l0.16,0.139l-0.134-0.162
		l-0.025,0.023l0.16,0.139l-0.134-0.162l0.588,0.708v-0.896c-0.301-0.004-0.538,0.138-0.588,0.188l0.588,0.708v-0.896H74.18v0.889
		l0.591-0.698c-0.046-0.048-0.285-0.194-0.591-0.19v0.889l0.591-0.698l-0.19,0.224l0.21-0.205l-0.021-0.019l-0.19,0.224l0.21-0.205
		l0,0c-0.025-0.022-0.159-0.236-0.25-0.565c-0.096-0.328-0.163-0.767-0.162-1.243v-84.51c-0.005-0.722,0.164-1.362,0.316-1.651
		l0.085-0.145l0.012-0.015l-0.159-0.139l0.134,0.162l0.025-0.023l-0.159-0.139l0.134,0.162l-0.588-0.708v0.895
		c0.301,0.003,0.538-0.138,0.588-0.188l-0.588-0.708v0.895h0.771v-0.889l-0.591,0.699c0.046,0.048,0.285,0.194,0.591,0.19v-0.889
		l-0.591,0.699l0.19-0.225l-0.211,0.206l0.021,0.019l0.19-0.225l-0.211,0.206l0,0c0.025,0.022,0.159,0.236,0.25,0.565
		c0.096,0.329,0.162,0.767,0.162,1.244v84.51H76.75h2v-84.51c-0.005-1.267-0.239-2.426-0.738-3.44
		c-0.255-0.506-0.581-0.987-1.069-1.404c-0.477-0.412-1.189-0.759-1.992-0.756H74.18c-0.803-0.003-1.515,0.344-1.992,0.756
		c-0.727,0.63-1.113,1.383-1.396,2.191c-0.273,0.812-0.411,1.704-0.413,2.653v84.51c0.005,1.267,0.239,2.427,0.739,3.44
		c0.255,0.506,0.581,0.986,1.069,1.403c0.477,0.412,1.189,0.76,1.992,0.756h0.771c0.803,0.004,1.515-0.344,1.992-0.756
		c0.727-0.631,1.113-1.383,1.395-2.191c0.273-0.812,0.411-1.703,0.413-2.652H76.75z"/>
	<path fill="#F1F2F2" d="M216.5,164.503c0,1.988-0.806,3.6-1.8,3.6h-0.771c-0.994,0-1.801-1.611-1.801-3.6v-84.51
		c0-1.988,0.807-3.6,1.801-3.6h0.771c0.994,0,1.8,1.612,1.8,3.6V164.503z"/>
	<path fill="#F1F2F2" d="M216.5,164.503h-2c0.006,0.722-0.164,1.361-0.316,1.651l-0.085,0.144l-0.012,0.016l0.16,0.139l-0.135-0.162
		l-0.025,0.023l0.16,0.139l-0.135-0.162l0.588,0.708v-0.896c-0.301-0.004-0.538,0.138-0.588,0.188l0.588,0.708v-0.896h-0.771v0.889
		l0.591-0.699c-0.047-0.047-0.285-0.193-0.591-0.189v0.889l0.591-0.699l-0.189,0.225l0.21-0.205l-0.021-0.02l-0.189,0.225
		l0.21-0.205v-0.001c-0.025-0.022-0.159-0.235-0.25-0.564c-0.096-0.328-0.163-0.767-0.162-1.243v-84.51
		c-0.006-0.722,0.164-1.361,0.316-1.651l0.085-0.144l0.013-0.016l-0.159-0.138l0.134,0.161l0.025-0.023l-0.159-0.138l0.134,0.161
		l-0.588-0.707v0.895c0.301,0.003,0.538-0.138,0.588-0.188l-0.588-0.707v0.895h0.771v-0.889l-0.591,0.699
		c0.046,0.048,0.284,0.194,0.591,0.19v-0.889l-0.591,0.699l0.189-0.225l-0.211,0.206l0.021,0.019l0.189-0.225l-0.211,0.206h0.001
		c0.024,0.022,0.158,0.236,0.249,0.565c0.096,0.329,0.163,0.767,0.162,1.244v84.51H216.5h2v-84.51
		c-0.006-1.267-0.238-2.426-0.738-3.44c-0.256-0.506-0.581-0.987-1.069-1.404c-0.477-0.412-1.188-0.759-1.992-0.756h-0.771
		c-0.804-0.003-1.515,0.344-1.992,0.756c-0.727,0.63-1.113,1.383-1.396,2.191c-0.273,0.812-0.412,1.704-0.413,2.653v84.51
		c0.006,1.267,0.239,2.427,0.739,3.44c0.256,0.506,0.581,0.986,1.069,1.403c0.478,0.412,1.189,0.76,1.992,0.756h0.771
		c0.803,0.004,1.515-0.344,1.992-0.756c0.727-0.631,1.113-1.383,1.396-2.191c0.272-0.812,0.411-1.703,0.412-2.652H216.5z"/>
	<circle fill="#F9F9FA" cx="96.144" cy="101.4" r="1.243"/>
	<circle fill="#F9F9FA" cx="191.754" cy="101.4" r="1.242"/>
</g>
</svg>
