<?xml version="1.0" encoding="utf-8"?>
<!-- Generator: Adobe Illustrator 15.0.0, SVG Export Plug-In . SVG Version: 6.00 Build 0)  -->
<!DOCTYPE svg PUBLIC "-//W3C//DTD SVG 1.1//EN" "http://www.w3.org/Graphics/SVG/1.1/DTD/svg11.dtd">
<svg version="1.1" id="Layer_1" xmlns="http://www.w3.org/2000/svg" xmlns:xlink="http://www.w3.org/1999/xlink" x="0px" y="0px"
	 width="300px" height="300px" viewBox="0 0 300 300" enable-background="new 0 0 300 300" xml:space="preserve">
<path fill="#FFFFFF" stroke="#000000" stroke-width="2" stroke-miterlimit="10" d="M90.294,157.904
	c13.505-2.725,32.862-4.432,54.365-4.432c40.813,0,73.901,6.149,73.901,13.736c0,7.586-33.088,13.735-73.901,13.735
	c-40.814,0-73.901-6.149-73.901-13.735C70.759,163.619,78.166,160.352,90.294,157.904"/>
<rect x="70.758" y="64.078" fill="#FFFFFF" width="147.802" height="103.131"/>
<ellipse fill="#FFFFFF" stroke="#000000" stroke-width="2" stroke-miterlimit="10" cx="144.659" cy="64.077" rx="73.901" ry="13.736"/>
<line fill="none" stroke="#000000" stroke-width="2" stroke-miterlimit="10" x1="218.561" y1="64.077" x2="218.561" y2="167.209"/>
<line fill="none" stroke="#000000" stroke-width="2" stroke-miterlimit="10" x1="70.758" y1="64.077" x2="70.758" y2="167.209"/>
<circle fill="#FEE5DA" stroke="#FEE5DA" stroke-width="2" stroke-miterlimit="10" cx="188.477" cy="120.725" r="5.082"/>
<circle fill="#FEE5DA" stroke="#FEE5DA" stroke-width="2" stroke-miterlimit="10" cx="99.878" cy="120.725" r="5.082"/>
<circle stroke="#000000" stroke-width="2" stroke-miterlimit="10" cx="194.932" cy="103.912" r="1.374"/>
<circle stroke="#000000" stroke-width="2" stroke-miterlimit="10" cx="89.714" cy="105.286" r="1.374"/>
<path stroke="#000000" stroke-width="2" stroke-miterlimit="10" d="M131.248,113.505c-0.03,0.37-0.05,0.743-0.05,1.122
	c0,6.676,4.797,12.088,10.714,12.088c5.729,0,10.395-5.078,10.686-11.459C145.536,115.818,138.208,115.051,131.248,113.505z"/>
<line fill="none" stroke="#000000" stroke-width="2" stroke-miterlimit="10" x1="104.96" y1="178.792" x2="104.96" y2="245.946"/>
<line fill="none" stroke="#000000" stroke-width="2" stroke-miterlimit="10" x1="188.477" y1="178.792" x2="188.477" y2="245.946"/>
<path stroke="#000000" stroke-width="2" stroke-miterlimit="10" d="M104.96,243.748c0-1.213-0.963-2.197-2.152-2.197H92.184
	c-1.189,0-2.152,0.984-2.152,2.197l0,0c0,1.214,0.963,2.198,2.152,2.198h10.624C103.997,245.946,104.96,244.962,104.96,243.748
	L104.96,243.748z"/>
<path stroke="#000000" stroke-width="2" stroke-miterlimit="10" d="M203.771,243.748c0-1.213-0.963-2.197-2.152-2.197h-10.624
	c-1.188,0-2.152,0.984-2.152,2.197l0,0c0,1.214,0.964,2.198,2.152,2.198h10.624C202.808,245.946,203.771,244.962,203.771,243.748
	L203.771,243.748z"/>
<line fill="none" stroke="#000000" stroke-width="2" stroke-miterlimit="10" x1="70.758" y1="113.505" x2="43.283" y2="170.672"/>
<line fill="none" stroke="#000000" stroke-width="2" stroke-miterlimit="10" x1="218.561" y1="113.505" x2="246.035" y2="170.672"/>
<path stroke="#000000" stroke-width="2" stroke-miterlimit="10" d="M43.111,170.672c0-0.956-1.018-1.731-2.272-1.731h-5.551
	c-1.255,0-2.272,0.775-2.272,1.731l0,0c0,0.956,1.018,1.731,2.272,1.731h5.551C42.094,172.403,43.111,171.628,43.111,170.672
	L43.111,170.672z"/>
<path stroke="#000000" stroke-width="2" stroke-miterlimit="10" d="M256.131,170.672c0-0.956-1.018-1.731-2.272-1.731h-5.551
	c-1.255,0-2.272,0.775-2.272,1.731l0,0c0,0.956,1.018,1.731,2.272,1.731h5.551C255.113,172.403,256.131,171.628,256.131,170.672
	L256.131,170.672z"/>
</svg>
