<?xml version="1.0" encoding="utf-8"?>
<!-- Generator: Adobe Illustrator 15.0.0, SVG Export Plug-In . SVG Version: 6.00 Build 0)  -->
<!DOCTYPE svg PUBLIC "-//W3C//DTD SVG 1.1//EN" "http://www.w3.org/Graphics/SVG/1.1/DTD/svg11.dtd">
<svg version="1.1" xmlns="http://www.w3.org/2000/svg" xmlns:xlink="http://www.w3.org/1999/xlink" x="0px" y="0px" width="300px"
	 height="300px" viewBox="0 0 300 300" enable-background="new 0 0 300 300" xml:space="preserve">
<g id="Layer_1">
	<g display="none">
		<rect x="12.363" y="23.469" display="inline" fill="#C4D3ED" width="260.439" height="242.309"/>
		<path display="inline" d="M272.902,265.877l-260.539,0.411l-0.51,0.001l0-0.512L11.563,23.469l-0.001-0.798l0.801-0.002
			l65.11-0.186l65.11-0.005l130.22,0.016h0.977l-0.003,0.974l-0.347,121.154l-0.184,60.577L272.902,265.877z M272.702,265.677
			l-0.343-60.477l-0.184-60.577l-0.347-121.154l0.974,0.974l-130.22,0.016l-65.11-0.005l-65.11-0.186l0.8-0.8l-0.289,242.309
			l-0.511-0.511L272.702,265.677z"/>
	</g>
	
		<polyline fill="none" stroke="#939598" stroke-width="7" stroke-linecap="round" stroke-linejoin="round" stroke-miterlimit="10" points="
		106.539,175.814 101.613,216.314 94.576,217.37 	"/>
	
		<polyline fill="none" stroke="#939598" stroke-width="7" stroke-linecap="round" stroke-linejoin="round" stroke-miterlimit="10" points="
		187.465,175.814 192.391,216.314 199.428,217.37 	"/>
	<path fill="none" stroke="#808285" stroke-width="3" stroke-linecap="round" stroke-linejoin="round" stroke-miterlimit="10" d="
		M103.274,214.705c1.577-12.964,3.153-25.927,4.73-38.891"/>
	<path fill="none" stroke="#808285" stroke-width="3" stroke-linecap="round" stroke-linejoin="round" stroke-miterlimit="10" d="
		M186.1,177.147c1.577,12.964,3.153,25.927,4.73,38.891"/>
	<path fill="none" stroke="#A7A9AC" stroke-width="7" stroke-linecap="round" stroke-miterlimit="10" d="M218.561,117.185
		c0,0,16.348-9.438,22.979-25.395c6.631-15.957-1.229-36.988-1.229-36.988"/>
	<path fill="none" stroke="#939598" stroke-width="3" stroke-linecap="round" stroke-miterlimit="10" d="M215.334,116.148
		c11.506-6.078,22.274-16.09,25.746-29.01"/>
	<path fill="none" stroke="#A7A9AC" stroke-width="7" stroke-linecap="round" stroke-miterlimit="10" d="M69.853,120.125
		c0,0-16.347-9.438-22.978-25.394c-6.631-15.958,1.229-36.989,1.229-36.989"/>
	<path fill="none" stroke="#939598" stroke-width="3" stroke-linecap="round" stroke-miterlimit="10" d="M73.059,118.675
		c-11.506-6.077-22.273-16.089-25.746-29.01"/>
	<path fill="#FFFFFF" stroke="#FFFFFF" stroke-width="2" stroke-miterlimit="10" d="M90.294,157.904
		c13.505-2.725,32.862-4.432,54.365-4.432c40.813,0,73.901,6.149,73.901,13.736c0,7.586-33.088,13.735-73.901,13.735
		c-40.814,0-73.901-6.149-73.901-13.735C70.759,163.619,78.166,160.352,90.294,157.904"/>
	<rect x="70.758" y="64.078" fill="#FFFFFF" width="147.802" height="103.131"/>
	<path display="none" fill="#FFFFFF" d="M218.561,168.092c0,1.988-1.611,3.6-3.6,3.6H74.358c-1.988,0-3.6-1.611-3.6-3.6V72.16
		c0-1.988,1.612-3.6,3.6-3.6h140.603c1.988,0,3.6,1.612,3.6,3.6V168.092z"/>
	<line fill="none" stroke="#FFFFFF" stroke-width="2" stroke-miterlimit="10" x1="218.561" y1="64.077" x2="218.561" y2="167.209"/>
	
		<line fill="#FFFFFF" stroke="#FFFFFF" stroke-width="2" stroke-miterlimit="10" x1="70.758" y1="64.077" x2="70.758" y2="167.209"/>
	<circle fill="#FEE5DA" stroke="#FEE5DA" stroke-width="2" stroke-miterlimit="10" cx="190.182" cy="125.207" r="5.082"/>
	<circle fill="#FEE5DA" stroke="#FEE5DA" stroke-width="2" stroke-miterlimit="10" cx="100.558" cy="125.207" r="5.082"/>
	<circle stroke="#000000" stroke-width="2" stroke-miterlimit="10" cx="97.496" cy="102.224" r="3.062"/>
	<path stroke="#000000" stroke-width="2" stroke-miterlimit="10" d="M135.43,127.715c-0.029-0.37-0.049-0.743-0.048-1.122
		c0.019-6.676,4.831-12.074,10.749-12.058c5.729,0.016,10.38,5.106,10.654,11.489c-2.747-0.227-5.536-0.252-8.328-0.109
		c-1.337,0.069-2.675,0.176-4.01,0.319C141.407,126.559,138.386,127.066,135.43,127.715z"/>
	
		<ellipse fill="#F1F2F2" stroke="#F1F2F2" stroke-width="2" stroke-miterlimit="10" cx="144.659" cy="64.077" rx="73.901" ry="13.736"/>
	<circle stroke="#000000" stroke-width="2" stroke-miterlimit="10" cx="193.244" cy="102.224" r="3.062"/>
	<path fill="#F1F2F2" stroke="#F1F2F2" stroke-width="4" stroke-miterlimit="10" d="M76.75,164.503c0,1.988-0.806,3.6-1.8,3.6H74.18
		c-0.994,0-1.8-1.611-1.8-3.6v-84.51c0-1.988,0.806-3.6,1.8-3.6h0.771c0.994,0,1.8,1.612,1.8,3.6V164.503z"/>
	<path fill="#F1F2F2" stroke="#F1F2F2" stroke-width="4" stroke-miterlimit="10" d="M216.5,164.503c0,1.988-0.806,3.6-1.8,3.6
		h-0.771c-0.994,0-1.801-1.611-1.801-3.6v-84.51c0-1.988,0.807-3.6,1.801-3.6h0.771c0.994,0,1.8,1.612,1.8,3.6V164.503z"/>
	<path fill="none" stroke="#27AAE1" stroke-width="7" stroke-linecap="round" stroke-miterlimit="10" d="M251.5,76.393"/>
	<path fill="#27AAE1" stroke="#27AAE1" stroke-miterlimit="10" d="M249,72"/>
	<path fill="none" stroke="#27AAE1" stroke-width="7" stroke-linecap="round" stroke-miterlimit="10" d="M-26.5,184"/>
	<circle fill="#F9F9FA" cx="96.144" cy="101.4" r="1.243"/>
	<circle fill="#F9F9FA" cx="191.754" cy="101.4" r="1.242"/>
</g>
<g id="Layer_2">
	<g opacity="0.8">
		
			<image overflow="visible" width="476" height="632" xlink:href="AE4B8149.png"  transform="matrix(0.24 0 0 0.24 92.9111 105.1279)">
		</image>
	</g>
	<g opacity="0.8">
		
			<image overflow="visible" width="499" height="670" xlink:href="AE4B814B.png"  transform="matrix(0.24 0 0 0.24 33.353 97.2085)">
		</image>
	</g>
	<g opacity="0.8">
		
			<image overflow="visible" width="499" height="670" xlink:href="AE4B814E.png"  transform="matrix(0.24 0 0 0.24 139.5762 95.2388)">
		</image>
	</g>
	<g opacity="0.72">
		
			<image overflow="visible" width="382" height="489" xlink:href="AE4B814F.png"  transform="matrix(0.24 0 0 0.24 44.9189 139.2344)">
		</image>
	</g>
	<g opacity="0.8">
		
			<image overflow="visible" width="390" height="474" xlink:href="AE4B814A.png"  transform="matrix(0.24 0 0 0.24 104.8799 141.7832)">
		</image>
	</g>
	<g opacity="0.8">
		<image overflow="visible" width="394" height="499" xlink:href="AE4B8145.png"  transform="matrix(0.24 0 0 0.24 157.1855 135)">
		</image>
	</g>
</g>
</svg>
